PathFileType	4	(X/Y/Z)	E1.trc
DataRate	CameraRate	NumFrames	NumMarkers	Units	OrigDataRate	OrigDataStartFrame	OrigNumFrames
60.0	60.0	18	23	m	60.0	1096	2190
Frame#	Time	NOSE	LEFT_EAR	RIGHT_EAR	LEFT_SHOULDER	RIGHT_SHOULDER	LEFT_ELBOW	RIGHT_ELBOW	LEFT_WRIST	RIGHT_WRIST	LEFT_INDEX	RIGHT_INDEX	LEFT_THUMB	RIGHT_THUMB	LEFT_HIP	RIGHT_HIP	LEFT_KNEE	RIGHT_KNEE	LEFT_ANKLE	RIGHT_ANKLE	LEFT_HEEL	RIGHT_HEEL	LEFT_FOOT_INDEX	RIGHT_FOOT_INDEX
		X1	Y1	Z1	X2	Y2	Z2	X3	Y3	Z3	X4	Y4	Z4	X5	Y5	Z5	X6	Y6	Z6	X7	Y7	Z7	X8	Y8	Z8	X9	Y9	Z9	X10	Y10	Z10	X11	Y11	Z11	X12	Y12	Z12	X13	Y13	Z13	X14	Y14	Z14	X15	Y15	Z15	X16	Y16	Z16	X17	Y17	Z17	X18	Y18	Z18	X19	Y19	Z19	X20	Y20	Z20	X21	Y21	Z21	X22	Y22	Z22	X23	Y23	Z23
1096	18.250000	0.275571	1.038538	0.815396	0.318850	1.063001	0.737427	0.211252	1.067998	0.750276	0.431754	0.906927	0.648885	0.081213	0.925133	0.654217	0.476347	0.664017	0.842233	0.024771	0.690413	0.762722	0.346203	0.854424	0.866389	0.171107	0.799170	0.765602	0.328335	0.932991	0.863249	0.192917	0.874864	0.755083	0.325444	0.922872	0.857335	0.211886	0.866244	0.773988	0.328089	0.561673	0.247830	0.105833	0.575151	0.263085	0.551235	0.448675	0.567874	-0.056982	0.453948	0.568369	0.516898	0.087135	0.395885	-0.028671	0.086879	0.410897	0.495043	0.033989	0.349697	-0.002687	0.034351	0.351533	0.589607	0.003757	0.480453	-0.093027	-0.012473	0.549955
1097	18.266667	0.274723	1.055139	0.812963	0.318277	1.080347	0.735237	0.209136	1.085152	0.747509	0.432678	0.920094	0.646948	0.079399	0.938396	0.650293	0.477657	0.669445	0.838345	0.021101	0.697612	0.767322	0.344295	0.863385	0.863243	0.178417	0.811127	0.774517	0.327507	0.943500	0.859068	0.196425	0.886059	0.760491	0.325461	0.933075	0.850972	0.211651	0.877678	0.774122	0.327740	0.570820	0.250951	0.103205	0.583520	0.263766	0.548716	0.449348	0.567316	-0.058427	0.455299	0.566718	0.517078	0.087403	0.395622	-0.029400	0.087859	0.407513	0.495878	0.033529	0.349039	-0.002409	0.033836	0.343107	0.591564	0.005375	0.485078	-0.094971	-0.011765	0.536481
1098	18.283333	0.273368	1.073810	0.809432	0.318075	1.098687	0.732680	0.207852	1.103882	0.743427	0.431892	0.936345	0.645569	0.077484	0.953295	0.649424	0.478812	0.681552	0.835585	0.020189	0.707680	0.769154	0.343218	0.875661	0.860007	0.180212	0.824164	0.774686	0.327741	0.957679	0.852687	0.197723	0.900509	0.761950	0.328730	0.945067	0.845254	0.210796	0.896889	0.772187	0.326507	0.585237	0.253076	0.099779	0.595391	0.265548	0.544925	0.450112	0.567016	-0.058912	0.455850	0.566741	0.516485	0.087173	0.395307	-0.029672	0.088763	0.406313	0.494840	0.032337	0.348837	-0.002738	0.033728	0.340917	0.591156	0.006969	0.487566	-0.096961	-0.009969	0.536061
1099	18.300000	0.273933	1.094201	0.804647	0.319703	1.118288	0.730870	0.207997	1.124139	0.739785	0.432459	0.956140	0.643510	0.074768	0.970616	0.642159	0.476989	0.690832	0.832565	0.020526	0.722308	0.773630	0.343165	0.889105	0.854637	0.179817	0.838989	0.777428	0.326546	0.971727	0.844264	0.199759	0.914582	0.766862	0.331905	0.958465	0.837357	0.209226	0.913833	0.771099	0.327176	0.603214	0.253628	0.099184	0.608546	0.266213	0.545711	0.456168	0.561515	-0.059464	0.457998	0.565582	0.516569	0.086723	0.396218	-0.031214	0.090256	0.403994	0.495549	0.031863	0.350096	-0.004548	0.033490	0.335928	0.593211	0.009657	0.494628	-0.099566	-0.007229	0.536726
1100	18.316667	0.273867	1.116800	0.798651	0.320052	1.139342	0.725316	0.207764	1.143284	0.734997	0.432064	0.972208	0.638536	0.074009	0.987654	0.642846	0.476240	0.707231	0.827905	0.020596	0.734236	0.772954	0.341397	0.907202	0.852257	0.181818	0.852965	0.776649	0.325677	0.986573	0.837505	0.198839	0.928686	0.763497	0.331801	0.973660	0.830580	0.207388	0.925220	0.764810	0.324912	0.617243	0.251128	0.097455	0.620928	0.266617	0.544533	0.457611	0.559893	-0.059165	0.458016	0.561783	0.516286	0.085617	0.396411	-0.031985	0.091375	0.402016	0.496530	0.030136	0.349770	-0.006244	0.034424	0.331281	0.594464	0.012334	0.507989	-0.101979	-0.004045	0.535892
1101	18.333333	0.274192	1.137339	0.795441	0.319900	1.160813	0.719347	0.207832	1.164054	0.730962	0.430725	0.992775	0.629901	0.074854	1.004058	0.640838	0.476891	0.724955	0.848563	0.022450	0.753924	0.771847	0.342076	0.919412	0.848868	0.183617	0.871269	0.784592	0.324506	0.998314	0.832799	0.198481	0.945047	0.773154	0.331828	0.987503	0.825297	0.203552	0.938732	0.762557	0.324862	0.630374	0.251573	0.096493	0.634366	0.265491	0.544425	0.462026	0.557146	-0.058686	0.457812	0.558662	0.515537	0.085745	0.395711	-0.032002	0.091603	0.400108	0.496547	0.029722	0.348606	-0.007437	0.035474	0.331756	0.594082	0.015362	0.512781	-0.103194	-0.003377	0.537362
1102	18.350000	0.274724	1.156587	0.791219	0.321388	1.181742	0.714883	0.209175	1.185423	0.724528	0.430433	1.007525	0.624316	0.075090	1.020234	0.638656	0.489150	0.734865	0.840864	0.022172	0.764436	0.768665	0.343675	0.933789	0.844984	0.183495	0.886171	0.783163	0.325202	1.010299	0.826733	0.199740	0.962190	0.771845	0.332419	1.002943	0.819768	0.201333	0.955494	0.755444	0.324486	0.643619	0.249888	0.098092	0.646724	0.263886	0.542650	0.464714	0.554843	-0.058019	0.459639	0.556288	0.514520	0.086119	0.396095	-0.031957	0.091530	0.398942	0.496205	0.029664	0.348564	-0.008438	0.036297	0.333260	0.595526	0.015921	0.517604	-0.103772	-0.002561	0.538350
1103	18.366667	0.276657	1.177903	0.788885	0.323550	1.204299	0.708977	0.209762	1.206000	0.720319	0.430053	1.032413	0.618117	0.074266	1.040121	0.635163	0.495429	0.752740	0.830388	0.024678	0.778892	0.768825	0.364545	0.958710	0.860457	0.186181	0.897380	0.784981	0.331816	1.023567	0.830542	0.203081	0.976368	0.773174	0.341370	1.012282	0.819847	0.200208	0.967647	0.751160	0.326632	0.660547	0.250351	0.099084	0.660891	0.262161	0.540930	0.467681	0.553627	-0.059007	0.460308	0.552939	0.514041	0.085838	0.397155	-0.031280	0.091781	0.397947	0.494984	0.029419	0.349911	-0.007816	0.036038	0.334872	0.592822	0.021209	0.520495	-0.104242	-0.001451	0.540573
1104	18.383333	0.278153	1.200659	0.783212	0.324673	1.226377	0.702139	0.210949	1.229944	0.713455	0.428972	1.051161	0.612053	0.073790	1.058123	0.630442	0.487311	0.773296	0.817782	0.024461	0.792668	0.762305	0.369249	0.967556	0.861151	0.188270	0.910964	0.782085	0.341439	1.030711	0.835563	0.206272	0.990005	0.773270	0.353413	1.019394	0.820365	0.199341	0.979891	0.745660	0.327748	0.673591	0.249923	0.100305	0.674775	0.261693	0.539029	0.469703	0.552851	-0.057891	0.461141	0.547308	0.513089	0.085630	0.398106	-0.031613	0.090702	0.397601	0.494418	0.028649	0.351307	-0.007920	0.035385	0.334896	0.591158	0.020069	0.517028	-0.103281	-0.002699	0.538962
1105	18.400000	0.279684	1.224081	0.772929	0.324816	1.249267	0.688751	0.211235	1.252288	0.704582	0.429990	1.069875	0.598966	0.068368	1.078033	0.620109	0.485739	0.792620	0.797951	0.019714	0.805691	0.753381	0.366448	0.975457	0.852106	0.189026	0.927894	0.771210	0.339724	1.043304	0.830932	0.209695	1.008123	0.761987	0.348447	1.031353	0.814080	0.197393	0.993050	0.729487	0.330249	0.687253	0.252167	0.101440	0.687017	0.265263	0.536583	0.472530	0.550456	-0.056787	0.462542	0.541768	0.512614	0.085190	0.397663	-0.031492	0.089401	0.396923	0.494254	0.027688	0.351686	-0.007754	0.033916	0.336483	0.588735	0.017506	0.508114	-0.102999	-0.003853	0.540757
1106	18.416667	0.280376	1.247007	0.761532	0.326070	1.271752	0.676663	0.210917	1.276127	0.692521	0.430158	1.090438	0.590621	0.067251	1.099969	0.614803	0.478044	0.810787	0.776786	0.018217	0.825662	0.742818	0.355836	0.999546	0.839016	0.188603	0.941967	0.765439	0.329633	1.066475	0.819036	0.210819	1.023030	0.754001	0.337264	1.057652	0.804523	0.197493	1.010359	0.720747	0.333662	0.697555	0.258225	0.102352	0.697842	0.268521	0.535116	0.473678	0.547735	-0.055665	0.463971	0.535452	0.512019	0.085794	0.397714	-0.029433	0.086311	0.394205	0.494322	0.027490	0.351660	-0.005613	0.030218	0.336014	0.586490	0.014995	0.503963	-0.098056	-0.012159	0.538471
1107	18.433333	0.279249	1.271142	0.747242	0.325250	1.293954	0.662842	0.209506	1.297850	0.681445	0.430732	1.109630	0.584394	0.067096	1.123671	0.607516	0.487462	0.826739	0.768439	0.014149	0.847495	0.733371	0.345843	1.015823	0.823454	0.189749	0.966375	0.762399	0.286154	1.078823	0.766144	0.212029	1.045727	0.753247	0.286590	1.074805	0.759785	0.198980	1.031847	0.720867	0.337954	0.709248	0.265910	0.104424	0.711475	0.271546	0.534149	0.473890	0.542265	-0.054740	0.467646	0.529079	0.512022	0.084273	0.395903	-0.027429	0.085510	0.393243	0.494325	0.026055	0.351254	-0.004180	0.029314	0.336923	0.584540	0.011553	0.496704	-0.094557	-0.018329	0.535719
1108	18.450000	0.277799	1.296315	0.735536	0.324382	1.317794	0.651390	0.207431	1.321042	0.670218	0.432434	1.127180	0.577073	0.064787	1.140036	0.600686	0.490589	0.847942	0.758057	0.013120	0.859550	0.725629	0.317636	1.023054	0.781590	0.191988	0.983405	0.755690	0.287296	1.094635	0.764261	0.214037	1.062214	0.747737	0.286130	1.092315	0.757885	0.210378	1.042996	0.732846	0.343742	0.720255	0.275954	0.106033	0.722311	0.277730	0.533787	0.474604	0.540728	-0.052124	0.469639	0.524191	0.511767	0.083470	0.395414	-0.028082	0.085569	0.390273	0.494199	0.024901	0.351229	-0.004789	0.030324	0.335595	0.584426	0.009696	0.498360	-0.095555	-0.018823	0.522733
1109	18.466667	0.277876	1.321339	0.728657	0.324846	1.343128	0.642400	0.207419	1.344714	0.663899	0.433294	1.149562	0.568517	0.064374	1.159672	0.597069	0.485651	0.861710	0.737624	0.012013	0.870622	0.716436	0.318306	1.028854	0.774637	0.193800	0.997577	0.748749	0.288412	1.106235	0.760538	0.215454	1.076114	0.743822	0.285518	1.103953	0.756003	0.210768	1.059099	0.729390	0.346558	0.730786	0.282034	0.106172	0.732652	0.284051	0.532996	0.476689	0.537916	-0.051077	0.469951	0.518067	0.512556	0.082560	0.394557	-0.028823	0.083974	0.387986	0.494342	0.025028	0.351350	-0.005353	0.029289	0.335869	0.580921	0.008749	0.502455	-0.094312	-0.021542	0.521304
1110	18.483333	0.278554	1.343641	0.718704	0.324975	1.365360	0.631170	0.208054	1.366703	0.655101	0.435625	1.170342	0.557438	0.063243	1.178078	0.592650	0.488459	0.875950	0.721179	0.011947	0.885670	0.711981	0.315462	1.031950	0.768186	0.195365	1.018952	0.747491	0.289411	1.121917	0.756063	0.216990	1.096729	0.742168	0.288800	1.109245	0.749454	0.212633	1.078223	0.729911	0.347712	0.742386	0.283905	0.107147	0.742666	0.286215	0.531672	0.477698	0.532689	-0.048606	0.471501	0.512885	0.513164	0.084379	0.394127	-0.028288	0.082312	0.381483	0.495158	0.025429	0.352629	-0.005477	0.028801	0.332258	0.584341	0.009514	0.502374	-0.093324	-0.022969	0.521605
1111	18.500000	0.276055	1.365280	0.709700	0.323898	1.385145	0.621111	0.207443	1.387514	0.647080	0.435422	1.191482	0.546673	0.059348	1.196760	0.586919	0.487988	0.891573	0.697419	0.011160	0.902353	0.703962	0.315477	1.043754	0.760611	0.198040	1.034942	0.735815	0.290245	1.129803	0.753506	0.218270	1.112003	0.735564	0.290064	1.113362	0.746384	0.214542	1.093986	0.721494	0.348089	0.752857	0.286917	0.107579	0.752105	0.290212	0.530235	0.479462	0.528875	-0.046861	0.472541	0.505177	0.513534	0.084172	0.392618	-0.028634	0.082597	0.379549	0.495876	0.024553	0.352123	-0.005359	0.028451	0.327754	0.586297	0.006395	0.503889	-0.096620	-0.019921	0.512325
1112	18.516667	0.275840	1.387213	0.701151	0.321946	1.406664	0.611790	0.206390	1.407377	0.637921	0.435929	1.209968	0.536561	0.059057	1.214752	0.583991	0.492455	0.912136	0.689831	0.012711	0.920940	0.696753	0.318656	1.055869	0.755934	0.200010	1.049655	0.730093	0.291422	1.140721	0.749051	0.219468	1.125680	0.732439	0.291065	1.127113	0.741857	0.216054	1.108481	0.719452	0.347961	0.763671	0.288981	0.108016	0.763888	0.292901	0.528693	0.480740	0.525464	-0.044455	0.473558	0.499500	0.514002	0.084097	0.391346	-0.028082	0.083734	0.378297	0.496231	0.024057	0.351074	-0.005133	0.028158	0.329625	0.586130	0.005660	0.502088	-0.095537	-0.020176	0.517174
1113	18.533333	0.275408	1.408422	0.691921	0.320501	1.426973	0.603548	0.205036	1.427826	0.627856	0.436870	1.227412	0.531557	0.058374	1.232795	0.577753	0.489354	0.923465	0.681055	0.012144	0.933793	0.681945	0.316475	1.068265	0.742279	0.201042	1.063754	0.726721	0.291741	1.158576	0.742873	0.220169	1.139043	0.731184	0.291589	1.140797	0.734702	0.217317	1.121259	0.717415	0.348782	0.772914	0.294641	0.109196	0.775140	0.295322	0.526583	0.482579	0.520896	-0.042121	0.475063	0.493489	0.515075	0.084437	0.390256	-0.028824	0.088123	0.362840	0.497079	0.023005	0.349792	-0.004575	0.028767	0.330622	0.589677	0.006776	0.503083	-0.093847	-0.017977	0.514594
